<svg width="1170" height="1500" viewBox="0 0 1170 1500" fill="none" xmlns="http://www.w3.org/2000/svg">
<path d="M1170 0H200C89.543 0 0 89.5431 0 200V1500H1170V0Z" fill="#FDEDE8"/>
<path d="M934.639 482.85C1000.1 411.439 1023.9 267.131 934.639 247.294C802.275 217.879 867.691 321.68 542.872 267.13C341.628 233.334 356.907 433.258 468.486 544.838C580.066 656.417 852.814 572.113 934.639 482.85Z" fill="#FCDDD4"/>
<mask id="mask0" style="mask-type:alpha" maskUnits="userSpaceOnUse" x="387" y="241" width="606" height="358">
<path d="M934.639 482.849C1000.1 411.438 1023.9 267.131 934.639 247.294C802.275 217.879 867.691 321.679 542.872 267.13C341.628 233.334 356.907 433.258 468.486 544.837C580.066 656.417 852.814 572.112 934.639 482.849Z" fill="#FCDDD4"/>
</mask>
<g mask="url(#mask0)">
<path opacity="0.7" d="M344.51 450.019C376.973 407.807 462.955 325.492 547.184 333.935C652.469 344.488 452.427 542.359 547.184 542.359C641.94 542.359 686.686 299.637 755.122 299.637C823.557 299.637 678.79 479.04 755.122 489.593C831.453 500.146 894.624 236.318 978.852 233.68C1063.08 231.042 891.992 450.019 1028.86 450.019" stroke="url(#paint0_linear)" stroke-width="2"/>
<path d="M1067.97 547.861C1067.97 575.392 1052.13 597.635 1032.64 597.635H997.307C977.819 597.635 962.155 575.209 962.155 547.861C962.155 520.33 978.001 498.086 997.489 498.086C997.853 498.086 998.036 498.086 998.4 498.086H1032.64C1052.31 498.086 1067.97 520.512 1067.97 547.861Z" fill="#402B2B"/>
<path d="M791.135 547.314C791.135 574.845 775.289 597.088 755.801 597.088H720.467C700.979 597.088 685.316 574.662 685.316 547.314C685.316 519.783 701.161 497.539 720.649 497.539C721.014 497.539 721.196 497.539 721.56 497.539H755.801C775.471 497.539 791.135 519.783 791.135 547.314Z" fill="#F48767"/>
<path d="M1070.34 543.121L928.095 542.756L944.487 533.093L1052.13 533.275L1070.34 543.121Z" fill="#402B2B"/>
<path d="M1204.57 461.987L1204.39 553.331L1088.92 553.149L1052.13 533.276L944.488 533.093L911.339 552.784L676.388 552.237C672.563 552.237 669.467 549.138 669.467 545.309L669.649 460.893L1204.57 461.987Z" fill="#F36F49"/>
<path d="M952.864 482.771L768.545 482.407L768.91 315.216C768.91 308.47 774.374 303 781.295 303L953.41 303.365L952.864 482.771Z" fill="#F48767"/>
<path d="M1240.27 483.501L953.047 482.954L953.411 303.547L1228.43 304.094C1235.17 304.094 1240.63 309.564 1240.63 316.492L1240.27 483.501Z" fill="#F06A5B"/>
<path d="M814.446 547.314C814.446 574.845 830.109 597.088 849.597 597.088H884.749V580.314C897.68 580.314 908.244 565.546 908.244 547.314C908.244 529.081 897.863 514.313 884.931 514.313V497.539H849.779C830.291 497.722 814.628 519.965 814.446 547.314Z" fill="#F48767"/>
<path d="M913.888 547.679C913.888 570.287 900.956 588.52 884.929 588.337C868.901 588.337 856.152 570.105 856.152 547.497C856.152 524.889 869.083 506.656 885.111 506.839C900.956 506.839 913.888 525.071 913.888 547.679Z" fill="#F48767"/>
<path d="M884.932 574.48C874.368 574.48 865.99 562.446 865.99 547.496C865.99 532.545 874.55 520.694 885.114 520.694C895.678 520.694 904.056 532.727 904.056 547.678C904.056 562.629 895.495 574.48 884.932 574.48ZM884.932 531.634C878.739 531.634 873.639 538.744 873.639 547.496C873.639 556.247 878.739 563.54 884.932 563.54C891.124 563.54 896.224 556.43 896.224 547.678C896.224 538.744 891.306 531.634 884.932 531.634Z" fill="#F7A58D"/>
<path d="M884.931 597.271C865.443 597.271 849.779 574.845 849.779 547.496C849.779 520.148 865.625 497.722 885.113 497.722C904.601 497.722 920.265 520.148 920.265 547.496C920.265 574.845 904.237 597.453 884.931 597.271ZM885.113 506.838C869.085 506.838 856.154 525.07 856.154 547.496C856.154 570.104 868.903 588.337 884.931 588.337C900.959 588.337 913.89 570.104 913.89 547.678C913.89 525.07 900.959 506.838 885.113 506.838Z" fill="#F7A58D"/>
<path d="M889.848 547.496C889.848 543.667 887.662 540.75 885.112 540.75C882.562 540.75 880.377 543.85 880.195 547.496C880.195 551.325 882.38 554.242 884.93 554.242C887.662 554.425 889.848 551.325 889.848 547.496Z" fill="#5B2929"/>
<path d="M646.52 411.119C646.52 411.848 645.974 412.395 645.427 412.577C643.97 412.942 638.506 412.942 636.867 412.395C636.138 412.213 635.41 411.666 635.41 410.754C634.864 396.168 634.864 381.947 635.41 368.455C635.41 367.543 636.138 366.996 636.867 366.814C638.688 366.267 645.063 365.902 647.066 366.632C647.795 366.814 648.341 367.543 648.341 368.273C648.706 382.129 648.159 396.351 646.52 411.119Z" fill="#F69276"/>
<path d="M655.443 424.063C655.261 424.063 655.079 424.063 654.714 423.881L642.329 417.682C639.415 416.223 637.594 413.306 637.594 410.024L637.776 364.261C637.776 362.438 639.233 360.979 641.054 360.979H675.113C676.024 360.979 676.57 361.708 676.57 362.438C676.57 363.349 675.842 363.896 675.113 363.896H641.054C640.872 363.896 640.872 364.078 640.872 364.078L640.69 409.842C640.69 412.03 641.965 413.853 643.786 414.765L656.171 420.964C656.9 421.328 657.264 422.24 656.9 422.969C656.536 423.881 655.989 424.063 655.443 424.063Z" fill="#F69276"/>
<path d="M928.095 482.406C928.095 482.406 923.36 482.406 916.074 482.406H887.115C865.441 482.406 860.342 493.163 847.046 519.6L804.973 519.418C804.973 519.418 804.973 516.319 804.973 511.031L644.332 510.667C643.604 497.357 642.146 470.373 642.146 444.848C642.146 443.936 642.146 443.207 642.146 442.295C642.146 435.002 643.421 426.98 645.607 418.958C654.167 387.598 675.841 354.233 684.766 342.017C687.68 338.006 690.23 334.542 692.415 331.442C698.608 323.238 702.797 319.044 710.628 319.044L905.328 319.591C909.335 319.591 912.978 322.326 914.071 326.155C930.827 387.78 928.277 434.637 928.095 482.406ZM763.993 341.288C764.175 340.376 763.447 339.647 762.536 339.647L703.343 339.464C699.883 339.464 696.422 341.288 694.236 344.387C671.106 375.929 661.817 404.736 658.356 421.328L654.714 438.831C654.167 441.383 655.806 443.389 658.356 443.389H672.745C675.113 443.389 677.662 442.295 679.484 440.472L708.989 412.212C712.268 409.112 716.639 407.289 720.828 407.289H756.162L763.993 341.288Z" fill="#F36F49"/>
<path d="M794.594 419.505C793.319 425.34 791.862 431.357 790.587 437.738C789.676 442.114 785.851 445.213 781.48 445.396C723.926 447.401 676.207 447.583 642.149 445.031C642.149 444.119 642.149 443.39 642.149 442.478C642.149 435.185 643.424 427.163 645.609 419.141L794.594 419.505Z" fill="#F6977C"/>
<path d="M900.959 339.83L841.766 339.647C838.306 339.647 835.209 341.47 833.57 344.57C816.996 376.112 813.536 404.919 813.536 421.511V439.014C813.536 441.566 815.539 443.572 818.089 443.572H832.477C834.845 443.572 837.213 442.478 838.67 440.655L862.347 412.395C865.079 409.295 868.904 407.289 873.093 407.472H908.427L902.781 341.47C902.781 340.559 902.052 339.83 900.959 339.83Z" fill="#F36F49"/>
<path d="M928.095 482.406C928.095 482.406 923.36 482.406 916.074 482.406H887.115C865.441 482.406 860.342 493.163 847.046 519.6L804.973 519.418C804.973 519.418 804.973 516.319 804.973 511.031L644.332 510.667C643.604 497.357 642.146 470.373 642.146 444.848C676.205 447.4 724.106 447.4 781.478 445.212C785.849 445.03 789.674 441.93 790.585 437.555C791.86 431.173 793.317 424.974 794.592 419.322C802.423 385.957 810.984 362.073 822.276 336.183C823.186 334.177 821.729 331.807 819.544 331.807L692.415 331.442C698.608 323.238 702.797 319.044 710.628 319.044L905.328 319.591C909.335 319.591 912.978 322.326 914.071 326.155C930.827 387.78 928.277 434.637 928.095 482.406ZM908.607 407.471L902.961 341.47C902.961 340.558 902.05 339.829 901.139 339.829L841.946 339.647C838.486 339.647 835.389 341.47 833.75 344.57C817.176 376.112 813.716 404.919 813.716 421.51V439.013C813.716 441.566 815.719 443.571 818.269 443.571H832.657C835.025 443.571 837.393 442.477 838.85 440.654L862.527 412.394C865.259 409.294 869.084 407.289 873.273 407.471H908.607Z" fill="#F7A58D"/>
<path d="M920.994 477.666C920.994 480.401 918.808 482.407 916.076 482.407H887.117C865.443 482.407 860.344 493.164 847.048 519.601L804.975 519.419C804.975 519.419 804.975 516.319 804.975 511.032L805.157 437.191C805.157 400.543 811.714 377.388 829.017 340.741C831.567 335.272 837.213 331.807 843.223 331.807L905.877 331.99C907.334 331.99 908.427 332.901 908.791 334.178C921.176 381.217 921.176 457.793 920.994 477.666ZM908.609 407.472L902.963 341.471C902.963 340.559 902.052 339.83 901.142 339.83L841.948 339.647C838.488 339.647 835.392 341.471 833.752 344.57C817.178 376.112 813.718 404.919 813.718 421.511V439.014C813.718 441.566 815.721 443.572 818.271 443.572H832.66C835.027 443.572 837.395 442.478 838.852 440.655L862.529 412.394C865.261 409.295 869.086 407.289 873.275 407.472H908.609Z" fill="#F58A6B"/>
<path d="M900.595 342.017L841.766 341.835C839.216 341.835 836.849 343.294 835.574 345.482C818.453 378.118 815.721 407.107 815.721 421.328V438.831C815.721 440.108 816.814 441.202 818.089 441.202H832.477C834.299 441.202 835.938 440.472 837.031 439.196L860.708 410.936C863.804 407.289 868.358 405.102 873.275 405.102H906.059L900.595 342.017ZM900.959 339.83C901.87 339.83 902.781 340.559 902.781 341.47L908.427 407.472H873.093C868.904 407.472 865.079 409.295 862.347 412.395L838.67 440.655C837.213 442.478 834.845 443.572 832.477 443.572H818.089C815.539 443.572 813.536 441.566 813.536 439.014V421.511C813.536 404.919 816.996 376.112 833.57 344.57C835.209 341.47 838.306 339.647 841.766 339.647L900.959 339.83Z" fill="#F7A58D"/>
<path d="M805.155 476.208V511.031L741.591 510.849C742.319 501.733 743.959 492.981 746.691 484.777C747.783 481.495 750.515 479.125 753.976 478.578C768 476.937 785.849 476.208 805.155 476.208ZM676.569 510.849H645.061C644.514 503.192 643.968 490.793 643.421 476.755C651.071 477.119 658.174 477.848 664.549 478.76C668.009 479.307 670.741 481.677 671.834 484.959C674.384 492.981 675.841 501.733 676.569 510.849Z" fill="#F6977C"/>
<path d="M804.974 546.038L657.628 545.673C647.611 545.673 639.415 537.469 639.415 527.441V524.341C639.415 521.424 641.783 519.236 644.515 519.236L804.791 519.601L804.974 546.038Z" fill="#F6977C"/>
<path d="M832.112 546.038H804.974V519.601H846.683L842.129 538.016C841.036 542.756 836.847 546.038 832.112 546.038Z" fill="#F7A58D"/>
<path d="M896.952 449.589C890.759 449.771 878.738 451.048 878.738 455.423C878.738 459.799 889.302 461.258 897.862 461.258C906.423 461.258 907.333 456.517 908.062 454.512C908.608 452.506 909.155 449.407 896.952 449.589Z" fill="#F6977C"/>
<path d="M896.405 454.329C899.319 454.329 902.415 453.418 903.872 451.959C902.779 451.412 901.14 450.865 898.59 450.865C893.855 450.865 886.205 451.412 882.198 453.235C882.745 453.6 884.202 454.329 886.569 454.329C889.484 454.329 893.308 454.329 896.405 454.329Z" fill="#F47B58"/>
<path d="M884.201 457.794C883.108 457.794 882.562 457.976 882.38 458.158C885.658 459.617 891.669 460.164 894.583 460.164C898.772 460.164 901.686 460.164 902.597 459.252C901.868 458.705 900.229 457.794 898.59 457.794C896.404 457.976 885.658 457.794 884.201 457.794Z" fill="#F47B58"/>
<path d="M804.974 511.214C804.974 516.501 804.974 519.601 804.974 519.601L644.879 519.236C644.879 519.236 644.697 516.136 644.333 510.849L804.974 511.214Z" fill="#F58A6B"/>
<g opacity="0.2">
<path d="M735.944 474.384V509.208L682.215 509.026V474.202C682.215 470.008 686.04 466.727 690.775 466.727H727.566C732.12 466.909 735.944 470.373 735.944 474.384Z" fill="#F16036"/>
</g>
<path d="M664.184 507.932H652.892C649.978 507.932 647.428 505.562 647.428 502.462V496.81C647.428 493.893 649.796 491.341 652.892 491.341H664.184C667.099 491.341 669.648 493.711 669.648 496.81V502.462C669.648 505.562 667.099 507.932 664.184 507.932Z" fill="white"/>
<path d="M771.099 508.297H759.807C756.893 508.297 754.343 505.927 754.343 502.827V497.175C754.343 494.258 756.711 491.706 759.807 491.706H771.099C774.014 491.706 776.563 494.076 776.563 497.175V502.827C776.563 505.745 774.196 508.297 771.099 508.297Z" fill="white"/>
<path d="M843.951 411.483C843.951 412.213 843.405 412.76 842.859 412.942C835.755 413.671 828.288 413.671 820.638 412.76C819.728 412.577 819.181 412.03 819.181 411.119C818.635 396.533 818.635 382.312 819.181 368.82C819.181 367.908 819.91 367.361 820.638 367.179C828.47 366.267 836.302 366.267 844.498 367.179C845.226 367.361 845.773 368.09 845.773 368.82C846.319 382.494 845.591 396.715 843.951 411.483Z" fill="#F7A58D"/>
<path d="M815.722 424.428C815.176 424.428 814.63 424.064 814.447 423.517C814.083 422.788 814.447 421.876 815.176 421.511L827.561 415.495C829.382 414.583 830.657 412.577 830.657 410.572L830.839 364.808C830.839 364.626 830.657 364.626 830.657 364.626H823.008C822.097 364.626 821.551 363.897 821.551 363.168C821.551 362.256 822.279 361.709 823.008 361.709H830.657C832.479 361.709 833.936 363.168 833.936 364.991L833.753 410.754C833.753 414.036 831.932 416.953 829.018 418.412L816.633 424.428C816.087 424.428 815.904 424.428 815.722 424.428Z" fill="#F69276"/>
<path d="M732.189 548.197L680.646 548.085L680.679 532.587L732.223 532.699L732.189 548.197Z" fill="#F8B4A0"/>
<path opacity="0.6" d="M822.628 336.734C811.335 362.624 802.957 386.509 794.943 419.874L645.959 419.509C654.519 388.15 676.193 354.784 685.117 342.569C688.031 338.558 690.581 335.093 692.767 331.994L819.896 332.359C822.081 332.541 823.538 334.729 822.628 336.734Z" fill="url(#paint1_linear)"/>
<path d="M581.305 354.535C581.305 354.535 577.099 485.393 581.19 632.503C581.19 632.503 593.462 644.134 616.714 636.38C616.714 636.38 616.498 472.685 622.742 407.638C622.742 407.638 652.022 531.271 689.053 638.319C689.053 638.319 713.812 643.057 722.639 629.057C722.639 629.057 672.69 455.669 665.37 355.944L581.305 354.535Z" fill="url(#paint2_linear)"/>
<path d="M581.619 355.944H665.369C666.015 363.482 666.661 371.452 667.737 379.637C617.789 379.852 591.308 367.144 581.404 361.329C581.404 357.667 581.619 355.944 581.619 355.944Z" fill="#402B2B" fill-opacity="0.45" style="mix-blend-mode:multiply"/>
</g>
<path d="M590.021 139.045H610.689L613.488 126.552C613.488 126.552 605.307 131.291 603.369 128.06C601.432 124.829 601.862 126.122 599.925 126.552C597.987 126.983 597.987 124.399 595.619 125.906C593.035 127.629 589.16 135.814 590.021 139.045Z" fill="#6B1912"/>
<path d="M549.632 295.023L561.41 266.508L594.528 278.922C593.386 288.056 573.187 305.561 561.41 317.959L549.632 295.023Z" fill="url(#paint3_linear)"/>
<path d="M577.216 211.923C577.216 211.923 559.081 244.814 548.452 293.165C545.182 308.043 545.973 315.729 550.932 319.201C557.131 323.54 568.287 319.82 573.866 308.043C579.547 295.026 590.048 266.792 592.404 253.222C592.404 253.222 588.328 214.362 577.216 211.923Z" fill="url(#paint4_linear)"/>
<path d="M577.104 211.415C577.104 211.415 578.181 236.184 581.41 355.295C581.41 355.295 610.69 370.156 669.035 359.818C669.035 359.818 669.251 324.063 677.216 292.401C677.216 292.401 692.072 232.738 684.536 215.292C684.536 215.292 636.956 185.783 577.104 211.415Z" fill="url(#paint5_linear)"/>
<path d="M622.315 187.808L621.884 203.23C621.884 203.23 625.544 208.615 634.371 209.261C643.198 209.692 647.504 204.738 647.504 204.738L648.365 181.777C637.385 186.515 626.621 188.454 622.315 187.808Z" fill="url(#paint6_linear)"/>
<path d="M623.177 181.476L622.316 198.492C626.622 199.138 637.386 197.199 648.151 192.461L648.797 181.476H623.177Z" fill="url(#paint7_linear)" style="mix-blend-mode:multiply"/>
<path d="M681.522 248.892C681.522 248.892 668.82 277.539 664.298 290.462C659.777 303.17 659.777 353.786 636.095 363.479C636.095 363.479 661.284 361.971 669.25 359.817C669.25 359.817 669.681 321.693 677.431 292.4C677.431 292.4 682.814 261.6 684.967 247.6L681.522 248.892Z" fill="#EE4D47" fill-opacity="0.29" style="mix-blend-mode:multiply"/>
<path d="M664.729 144C664.299 144.215 663.868 151.107 663.868 151.107L662.146 165.538L654.18 171.785L649.659 173.723C649.659 173.723 642.985 170.923 643.846 168.338C644.707 165.969 649.013 131.938 649.874 131.938C650.735 131.938 657.625 136.892 657.625 136.892L664.729 144Z" fill="#402B2B"/>
<path d="M601.649 131.075C599.711 131.075 602.725 154.768 602.725 154.768L606.17 145.291L608.538 133.875L601.649 131.075Z" fill="#402B2B"/>
<path d="M604.878 135.812L601.218 166.182C601.218 166.182 599.926 191.814 621.025 193.321C642.124 194.614 656.549 173.721 656.549 173.721C656.549 173.721 659.132 176.736 661.931 171.567C664.514 166.398 662.792 159.505 659.132 158.859C655.257 158.428 653.534 160.582 653.104 163.813C652.673 167.044 652.243 169.413 652.243 169.413L649.013 168.982L651.381 143.997C651.381 143.997 646.43 134.305 640.832 132.366C635.234 130.428 630.283 138.182 630.283 138.182C630.283 138.182 625.116 139.259 620.164 138.182C615.212 137.105 611.983 135.812 611.983 135.812C611.983 135.812 608.968 136.674 604.878 135.812Z" fill="url(#paint8_linear)"/>
<path d="M620.977 311.76C620.977 311.76 588.124 306.801 588.124 301.842C588.124 296.883 594.942 285.105 599.901 271.468C604.86 257.831 609.2 236.135 611.059 231.795C612.919 227.456 605.48 239.854 605.48 239.854C593.289 255.764 568.411 288.701 566.428 293.164C564.444 297.627 563.535 308.248 563.328 313L572.007 317.959L597.422 314.86L620.977 311.76Z" fill="#EE4D47" fill-opacity="0.29" style="mix-blend-mode:multiply"/>
<path d="M610.38 180.345C610.38 177.866 612.907 174.16 617.199 175.386C621.538 176.626 622.571 180.345 622.778 182.825" stroke="#893D43"/>
<path d="M604.182 216.299C604.182 216.299 550.253 285.745 549.013 296.884C547.773 308.023 546.871 319.009 558.142 320.365C569.412 321.722 580.119 303.975 584.064 294.932L593.024 272.088L611.62 226.837L604.182 216.299Z" fill="url(#paint9_linear)"/>
<path d="M611.679 231.175C611.679 224.976 604.24 222.497 598.041 222.497L559.609 275.807C551.757 286.758 538.285 312.008 552.17 320.439C566.056 328.869 581.511 307.421 586.884 296.263C589.859 289.32 604.654 249.978 611.679 231.175Z" fill="url(#paint10_linear)"/>
<path d="M604.241 217.538C604.241 217.538 600.453 202.816 604.477 193.237C604.477 193.237 606.673 188.953 609.041 190.794C611.678 192.492 613.75 188.62 616.387 190.317C619.023 192.015 621.133 189.504 623.746 192.769C623.746 192.769 626.719 191.869 628.425 194.41C630.132 196.951 634.039 202.632 633.19 203.949C632.341 205.267 629.459 211.818 628.715 212.043C627.972 212.268 626.611 212.306 625.997 209.871C625.997 209.871 625.93 212.325 624.645 215.085C623.565 217.907 620.051 221.342 620.051 221.342L611.059 227.455L604.241 217.538Z" fill="url(#paint11_linear)"/>
<path d="M627.051 128.06V106.09C640.184 106.736 653.748 109.321 660.422 117.506C668.388 127.198 663.867 149.599 663.867 149.599C663.867 149.599 654.178 148.522 652.456 145.291C650.734 142.06 634.371 137.537 621.884 138.183C609.397 138.829 603.369 137.537 597.125 132.152C595.833 131.075 594.757 129.567 593.896 127.844H627.051V128.06Z" fill="#402B2B"/>
<path d="M665.374 141.414C665.374 141.414 656.116 138.398 640.615 137.106C614.564 126.121 603.369 128.06 603.369 128.06C603.369 128.06 603.584 119.66 605.952 113.844C608.321 108.029 624.253 99.8439 637.601 101.136C650.949 102.429 664.728 112.336 666.881 121.813C668.603 129.137 665.374 141.414 665.374 141.414Z" fill="url(#paint12_linear)"/>
<path d="M649.658 138.186C646.859 124.832 626.837 118.155 612.627 118.37C598.633 118.585 588.73 130.216 587.223 138.186C586.577 141.417 589.16 141.847 590.022 139.047C590.667 137.109 591.959 127.847 604.877 128.924C617.795 130.001 617.149 141.632 623.608 142.709C629.636 143.786 636.525 139.478 649.658 138.186Z" fill="url(#paint13_linear)"/>
<path d="M605.543 146.1L604.872 144.75C605.451 144.462 609.598 141.68 615.571 140.155L616.433 142.373C611.327 143.226 605.543 146.1 605.543 146.1Z" fill="#402B2B"/>
<path d="M642.193 151.767C639.613 148.162 633.459 144.055 633.551 143.86L635.252 142.282C635.446 142.374 640.925 146.399 643.617 150.773L642.193 151.767Z" fill="#402B2B"/>
<path d="M621.241 153.907C621.241 153.907 620.595 158.43 618.873 159.722C617.151 161.015 614.136 162.092 613.706 163.169C613.275 164.03 614.136 165.753 616.074 166.4C618.012 167.046 618.227 167.692 618.227 167.692C618.227 167.692 614.352 168.123 612.414 165.753C610.476 163.384 612.629 161.446 614.567 160.369C616.505 159.292 617.366 158.861 618.227 158.215C619.304 157.569 621.241 153.907 621.241 153.907Z" fill="#D87C60"/>
<path d="M630.496 156.274C630.496 158.428 632.003 160.366 633.941 160.366C635.879 160.366 637.386 158.643 637.386 156.274C637.386 154.12 635.879 152.181 633.941 152.181C632.003 152.181 630.496 153.904 630.496 156.274Z" fill="#402B2B"/>
<path d="M606.815 153.474C606.815 155.628 608.322 157.567 610.259 157.567C612.197 157.567 613.704 155.844 613.704 153.474C613.704 151.321 612.197 149.382 610.259 149.382C608.322 149.597 606.815 151.321 606.815 153.474Z" fill="#402B2B"/>
<path d="M595.136 321.68C593.483 318.993 590.425 311.513 591.416 303.083C593.483 305.976 597.119 313.745 595.136 321.68Z" fill="#644545"/>
<path fill-rule="evenodd" clip-rule="evenodd" d="M670.111 311.571C685.828 288.739 687.98 219.6 687.98 219.6C673.519 221.48 666.612 235.795 662.175 244.992C660.007 249.486 658.428 252.758 656.846 252.758L650.186 295.098L583.583 306.991C583.528 307.068 583.473 307.145 583.418 307.221C580.138 307.307 568.753 307.949 561.317 312.684C561.317 312.684 557.465 315.571 559.679 317.595C560.738 318.752 560.401 320.004 560.063 321.256C559.726 322.508 559.389 323.759 560.448 324.916C561.341 325.891 561.481 326.901 561.618 327.894C561.806 329.255 561.99 330.586 564.105 331.756C564.105 331.756 563.719 334.838 566.511 336.092C566.638 336.149 566.772 336.209 566.912 336.272C569.861 337.6 575.614 340.191 576.717 339.18C577.132 338.8 578.167 338.049 579.327 337.206C581.401 335.699 583.879 333.9 583.941 333.406C584.037 332.635 583.845 331.287 581.341 331.092C581.341 331.092 583.749 330.612 586.253 328.88C588.853 327.341 591.646 323.297 591.646 323.297L594.18 317.509C655.887 322.769 670.111 311.571 670.111 311.571Z" fill="url(#paint14_linear)"/>
<path d="M652.027 251.263L645.998 282.925L643.294 290.894L591.223 303.083C592.67 305.769 595.439 313.249 594.943 321.68C606.514 322.919 638.707 323.043 660.031 318.58C665.759 317.48 672.428 311.761 680.876 290.894C700.037 224.985 684.536 215.293 684.536 215.293C663.007 218.093 652.027 251.263 652.027 251.263Z" fill="url(#paint15_linear)"/>
<path d="M514.977 279.527C514.977 279.527 539.678 304.943 519.317 310.522C498.955 316.101 479.69 299.686 453.655 304.135C409.023 311.761 335.736 321.679 296.063 247.293C246.473 154.31 375.89 117.117 441.116 117.117C519.363 117.118 550.216 150.591 557.655 196.463C563.606 233.16 531.094 268.369 514.977 279.527Z" fill="url(#paint16_linear)"/>
<path d="M420.914 228.236L422.108 202.658C426.888 201.418 430.879 199.142 434.081 195.831C437.282 192.52 439.135 188.32 439.638 183.231C440.231 177.243 439.616 172.446 437.792 168.839C435.979 165.133 433.453 163.119 430.214 162.799C427.369 162.517 425.062 163.297 423.294 165.137C421.624 166.987 420.18 169.565 418.961 172.871L416.336 179.866C415.117 183.172 413.354 185.466 411.047 186.75C408.848 187.943 406.585 188.273 404.26 187.741C402.032 187.218 400.173 185.976 398.683 184.015C397.202 181.953 396.619 179.326 396.936 176.133C397.331 172.141 399.094 168.839 402.227 166.226C405.457 163.624 409.409 161.747 414.081 160.598C418.753 159.448 423.543 159.115 428.45 159.601C438.362 160.582 445.902 163.495 451.072 168.339C456.339 173.194 458.548 179.912 457.699 188.495C457.116 194.382 455.199 199.231 451.948 203.041C448.697 206.851 444.686 209.83 439.915 211.978C435.252 214.036 430.447 215.525 425.5 216.446L423.564 228.499L420.914 228.236ZM417.506 264.177C413.973 263.827 411.054 262.279 408.75 259.531C406.543 256.794 405.618 253.628 405.973 250.036C406.319 246.543 407.842 243.671 410.542 241.419C413.351 239.076 416.521 238.08 420.054 238.43C423.685 238.789 426.55 240.383 428.649 243.21C430.855 245.948 431.786 249.063 431.44 252.556C431.084 256.149 429.556 259.071 426.856 261.323C424.254 263.585 421.137 264.536 417.506 264.177Z" fill="white"/>
<defs>
<linearGradient id="paint0_linear" x1="686.686" y1="306.737" x2="686.686" y2="610.4" gradientUnits="userSpaceOnUse">
<stop stop-color="#F37753"/>
<stop offset="1" stop-color="white" stop-opacity="0"/>
</linearGradient>
<linearGradient id="paint1_linear" x1="753.128" y1="304.103" x2="681.756" y2="475.02" gradientUnits="userSpaceOnUse">
<stop stop-color="#F7A58D"/>
<stop offset="0.926161" stop-color="white"/>
</linearGradient>
<linearGradient id="paint2_linear" x1="651.058" y1="275.86" x2="651.058" y2="639.091" gradientUnits="userSpaceOnUse">
<stop stop-color="#822626"/>
<stop offset="0.943497" stop-color="#402B2B"/>
</linearGradient>
<linearGradient id="paint3_linear" x1="568.001" y1="270.358" x2="568.001" y2="326.997" gradientUnits="userSpaceOnUse">
<stop stop-color="#FFB3B6"/>
<stop offset="1" stop-color="#FFC8C1"/>
</linearGradient>
<linearGradient id="paint4_linear" x1="592.463" y1="216.92" x2="592.463" y2="328.499" gradientUnits="userSpaceOnUse">
<stop stop-color="#F4A984"/>
<stop offset="1" stop-color="#EE4D47"/>
</linearGradient>
<linearGradient id="paint5_linear" x1="631.887" y1="139.058" x2="631.887" y2="357.894" gradientUnits="userSpaceOnUse">
<stop stop-color="#F4A984"/>
<stop offset="1" stop-color="#EE4D47"/>
</linearGradient>
<linearGradient id="paint6_linear" x1="643.947" y1="202.119" x2="622.16" y2="211.516" gradientUnits="userSpaceOnUse">
<stop stop-color="#FFB3B6"/>
<stop offset="1" stop-color="#FFC8C1"/>
</linearGradient>
<linearGradient id="paint7_linear" x1="644.379" y1="191.313" x2="622.469" y2="200.591" gradientUnits="userSpaceOnUse">
<stop stop-color="#FFB3B6" stop-opacity="0.31"/>
<stop offset="1" stop-color="#FFC8C1"/>
</linearGradient>
<linearGradient id="paint8_linear" x1="598.412" y1="185.947" x2="603.072" y2="144.304" gradientUnits="userSpaceOnUse">
<stop stop-color="#FFB3B6"/>
<stop offset="1" stop-color="#FFC8C1"/>
</linearGradient>
<linearGradient id="paint9_linear" x1="587.657" y1="191.503" x2="587.657" y2="318.367" gradientUnits="userSpaceOnUse">
<stop stop-color="#FFB3B6"/>
<stop offset="1" stop-color="#FFC8C1"/>
</linearGradient>
<linearGradient id="paint10_linear" x1="560.848" y1="248.532" x2="607.29" y2="316.753" gradientUnits="userSpaceOnUse">
<stop stop-color="#F4A984"/>
<stop offset="0.91698" stop-color="#EE4D47"/>
</linearGradient>
<linearGradient id="paint11_linear" x1="614.5" y1="215" x2="632" y2="185" gradientUnits="userSpaceOnUse">
<stop stop-color="#FFB3B6"/>
<stop offset="1" stop-color="#FFC8C1"/>
</linearGradient>
<linearGradient id="paint12_linear" x1="635.378" y1="79.2979" x2="635.378" y2="141.924" gradientUnits="userSpaceOnUse">
<stop stop-color="#F4A984"/>
<stop offset="1" stop-color="#EE4D47"/>
</linearGradient>
<linearGradient id="paint13_linear" x1="637.015" y1="112.164" x2="637.015" y2="177.27" gradientUnits="userSpaceOnUse">
<stop stop-color="#F4A984"/>
<stop offset="1" stop-color="#EE4D47"/>
</linearGradient>
<linearGradient id="paint14_linear" x1="666.777" y1="279.577" x2="555.166" y2="316.78" gradientUnits="userSpaceOnUse">
<stop stop-color="#FFB3B6"/>
<stop offset="1" stop-color="#FFC8C1"/>
</linearGradient>
<linearGradient id="paint15_linear" x1="633.995" y1="254.112" x2="681.107" y2="325.399" gradientUnits="userSpaceOnUse">
<stop stop-color="#F4A984"/>
<stop offset="1" stop-color="#EE4D47"/>
</linearGradient>
<linearGradient id="paint16_linear" x1="324.673" y1="-5.6198" x2="553.334" y2="327.785" gradientUnits="userSpaceOnUse">
<stop stop-color="#F4A984"/>
<stop offset="1" stop-color="#EE4D47"/>
</linearGradient>
</defs>
</svg>
