<svg width="1400" height="830" viewBox="0 0 1400 830" fill="none" xmlns="http://www.w3.org/2000/svg">
<path d="M1300 170H0V830H1400V270C1400 214.772 1355.23 170 1300 170Z" fill="#0F264C"/>
<path d="M304.551 702.534V702.276L305.621 702.017C306.335 701.862 306.692 701.431 306.692 700.724V685.983H304.472C303.828 685.983 303.367 686.155 303.089 686.5C302.81 686.828 302.514 687.284 302.201 687.871L301.261 689.681H301L301.131 685.466H316.195L316.299 689.681H316.038L315.098 687.871C314.802 687.284 314.515 686.828 314.237 686.5C313.958 686.155 313.497 685.983 312.853 685.983H310.634V700.724C310.634 701.431 310.991 701.862 311.704 702.017L312.775 702.276V702.534H304.551Z" fill="white"/>
<path d="M317.421 702.534V702.276L317.969 702.095C318.317 701.974 318.543 701.819 318.648 701.629C318.752 701.422 318.804 701.138 318.804 700.776V687.25C318.804 686.905 318.752 686.638 318.648 686.448C318.561 686.241 318.352 686.078 318.021 685.957L317.421 685.724V685.466H324.887C326.941 685.466 328.516 685.853 329.613 686.629C330.71 687.388 331.258 688.448 331.258 689.81C331.258 690.569 330.971 691.328 330.396 692.086C329.822 692.845 328.917 693.431 327.681 693.845L331.31 700.983C331.467 701.276 331.641 701.517 331.832 701.707C332.041 701.879 332.311 702.034 332.642 702.172L332.981 702.302V702.534H328.308L324.444 694.388H322.668V700.776C322.668 701.103 322.721 701.371 322.825 701.578C322.929 701.784 323.147 701.94 323.478 702.043L324.104 702.276V702.534H317.421ZM322.668 693.871H323.921C325.175 693.871 326.08 693.543 326.637 692.888C327.194 692.216 327.472 691.224 327.472 689.914C327.472 688.586 327.211 687.603 326.689 686.966C326.167 686.31 325.288 685.983 324.052 685.983H322.668V693.871Z" fill="white"/>
<path d="M333.704 702.534V702.276L334.357 702.043C334.705 701.905 334.975 701.741 335.166 701.552C335.357 701.345 335.514 701.06 335.636 700.698L341.014 685.414H343.233L348.533 700.802C348.673 701.181 348.829 701.474 349.003 701.681C349.177 701.871 349.447 702.034 349.813 702.172L350.126 702.276V702.534H343.494V702.276L343.886 702.147C344.252 702.009 344.469 701.819 344.539 701.578C344.626 701.319 344.617 701.017 344.513 700.672L343.286 696.948H337.49L336.236 700.595C336.115 700.974 336.071 701.276 336.106 701.5C336.158 701.724 336.367 701.905 336.733 702.043L337.307 702.276V702.534H333.704ZM337.672 696.431H343.129L340.492 688.388L337.672 696.431Z" fill="white"/>
<path d="M350.948 702.534V702.276L351.418 702.121C351.766 702 352.001 701.836 352.123 701.629C352.245 701.422 352.305 701.147 352.305 700.802C352.323 699.767 352.332 698.724 352.332 697.672C352.332 696.621 352.332 695.569 352.332 694.517V693.483C352.332 692.448 352.332 691.414 352.332 690.379C352.332 689.328 352.323 688.284 352.305 687.25C352.305 686.905 352.253 686.629 352.149 686.422C352.062 686.216 351.853 686.052 351.522 685.931L350.948 685.724V685.466H363.584L363.767 689.759H363.506L362.018 687.043C361.844 686.716 361.643 686.457 361.417 686.267C361.191 686.078 360.878 685.983 360.477 685.983H356.274C356.256 687.207 356.248 688.457 356.248 689.733C356.248 691.009 356.248 692.276 356.248 693.534H358.963C359.363 693.534 359.659 693.448 359.851 693.276C360.042 693.103 360.225 692.853 360.399 692.526L360.947 691.543H361.208V696.069H360.947L360.373 695.086C360.199 694.776 360.016 694.526 359.825 694.336C359.65 694.147 359.363 694.052 358.963 694.052H356.248C356.248 695.259 356.248 696.414 356.248 697.517C356.248 698.603 356.256 699.672 356.274 700.724C356.274 701.397 356.605 701.836 357.266 702.043L358.049 702.276V702.534H350.948Z" fill="white"/>
<path d="M364.818 702.534V702.276L365.34 702.069C365.688 701.948 365.914 701.784 366.019 701.578C366.14 701.371 366.201 701.095 366.201 700.75V687.25C366.201 686.905 366.149 686.629 366.045 686.422C365.94 686.216 365.705 686.052 365.34 685.931L364.818 685.724V685.466H371.527V685.724L371.005 685.931C370.657 686.052 370.422 686.216 370.3 686.422C370.196 686.629 370.144 686.905 370.144 687.25V700.75C370.144 701.095 370.196 701.371 370.3 701.578C370.422 701.767 370.657 701.931 371.005 702.069L371.527 702.276V702.534H364.818Z" fill="white"/>
<path d="M381.218 703C379.53 703 377.998 702.664 376.623 701.991C375.266 701.302 374.186 700.284 373.386 698.94C372.585 697.595 372.185 695.948 372.185 694C372.185 692.517 372.428 691.216 372.916 690.095C373.403 688.974 374.065 688.034 374.9 687.276C375.753 686.517 376.728 685.948 377.824 685.569C378.938 685.19 380.113 685 381.349 685C382.341 685 383.255 685.112 384.09 685.336C384.925 685.56 385.709 685.871 386.44 686.267L386.544 689.448H386.283L384.978 687.379C384.804 687.052 384.612 686.759 384.403 686.5C384.194 686.224 383.933 686.017 383.62 685.879C383.359 685.759 383.098 685.672 382.837 685.621C382.593 685.552 382.28 685.517 381.897 685.517C380.887 685.517 379.965 685.784 379.129 686.319C378.311 686.853 377.65 687.741 377.145 688.983C376.658 690.207 376.414 691.888 376.414 694.026C376.414 696.147 376.649 697.828 377.119 699.069C377.589 700.293 378.224 701.172 379.025 701.707C379.843 702.224 380.757 702.483 381.766 702.483C382.323 702.483 382.767 702.448 383.098 702.379C383.429 702.293 383.759 702.172 384.09 702.017C384.421 701.879 384.673 701.681 384.847 701.422C385.021 701.147 385.178 700.853 385.317 700.543L386.466 698.009H386.727L386.649 701.707C385.918 702.086 385.099 702.397 384.194 702.638C383.289 702.879 382.297 703 381.218 703Z" fill="white"/>
<path d="M395.987 703C394.925 703 393.898 702.81 392.906 702.431C391.931 702.052 391.052 701.491 390.269 700.75C389.503 699.991 388.894 699.052 388.442 697.931C387.989 696.81 387.763 695.5 387.763 694C387.763 692.517 387.989 691.216 388.442 690.095C388.894 688.974 389.512 688.043 390.295 687.302C391.079 686.543 391.957 685.974 392.932 685.595C393.924 685.198 394.942 685 395.987 685C397.049 685 398.067 685.19 399.041 685.569C400.034 685.931 400.912 686.491 401.678 687.25C402.462 687.991 403.079 688.931 403.532 690.069C403.985 691.19 404.211 692.5 404.211 694C404.211 695.466 403.985 696.767 403.532 697.905C403.079 699.026 402.462 699.966 401.678 700.724C400.912 701.466 400.034 702.034 399.041 702.431C398.067 702.81 397.049 703 395.987 703ZM395.987 702.457C396.944 702.457 397.719 702.207 398.31 701.707C398.902 701.19 399.329 700.319 399.59 699.095C399.868 697.853 400.007 696.155 400.007 694C400.007 691.828 399.868 690.129 399.59 688.905C399.329 687.664 398.902 686.793 398.31 686.293C397.719 685.776 396.944 685.517 395.987 685.517C395.047 685.517 394.281 685.776 393.689 686.293C393.098 686.793 392.662 687.664 392.384 688.905C392.123 690.129 391.992 691.828 391.992 694C391.992 696.155 392.123 697.853 392.384 699.095C392.662 700.319 393.098 701.19 393.689 701.707C394.281 702.207 395.047 702.457 395.987 702.457Z" fill="white"/>
<path d="M407.755 702.922C407.128 702.922 406.597 702.707 406.162 702.276C405.727 701.845 405.509 701.328 405.509 700.724C405.509 700.121 405.727 699.595 406.162 699.147C406.597 698.698 407.128 698.474 407.755 698.474C408.381 698.474 408.912 698.698 409.347 699.147C409.782 699.595 410 700.121 410 700.724C410 701.328 409.782 701.845 409.347 702.276C408.912 702.707 408.381 702.922 407.755 702.922Z" fill="white"/>
<path opacity="0.4" d="M240 683L253 683L253 669L240 683Z" fill="white"/>
<path d="M278 683H253V710L278 683Z" fill="white"/>
<path d="M1223.08 695C1222.98 695 1222.89 694.968 1222.81 694.904C1222.75 694.829 1222.72 694.739 1222.72 694.632V684.184C1222.72 684.067 1222.75 683.976 1222.81 683.912C1222.89 683.837 1222.98 683.8 1223.08 683.8H1229.61C1229.73 683.8 1229.82 683.837 1229.88 683.912C1229.96 683.976 1230 684.067 1230 684.184V684.824C1230 684.931 1229.96 685.021 1229.88 685.096C1229.82 685.16 1229.73 685.192 1229.61 685.192H1224.27V688.92H1229.29C1229.41 688.92 1229.5 688.957 1229.56 689.032C1229.64 689.096 1229.68 689.187 1229.68 689.304V689.944C1229.68 690.051 1229.64 690.141 1229.56 690.216C1229.49 690.28 1229.4 690.312 1229.29 690.312H1224.27V694.632C1224.27 694.739 1224.23 694.829 1224.16 694.904C1224.08 694.968 1223.99 695 1223.88 695H1223.08ZM1231.42 695C1231.33 695 1231.26 694.968 1231.2 694.904C1231.13 694.84 1231.1 694.765 1231.1 694.68C1231.1 694.595 1231.11 694.536 1231.12 694.504L1235.08 684.152C1235.17 683.917 1235.34 683.8 1235.6 683.8H1236.68C1236.94 683.8 1237.11 683.917 1237.2 684.152L1241.15 694.504L1241.18 694.68C1241.18 694.765 1241.15 694.84 1241.08 694.904C1241.02 694.968 1240.95 695 1240.86 695H1240.04C1239.93 695 1239.84 694.973 1239.77 694.92C1239.71 694.856 1239.67 694.792 1239.64 694.728L1238.76 692.456H1233.52L1232.64 694.728C1232.61 694.792 1232.57 694.856 1232.49 694.92C1232.43 694.973 1232.34 695 1232.24 695H1231.42ZM1238.3 691.08L1236.14 685.4L1233.98 691.08H1238.3ZM1250.7 696.04C1250.59 696.04 1250.48 696.003 1250.4 695.928C1250.31 695.864 1250.23 695.779 1250.16 695.672L1249.5 694.776C1248.95 695.032 1248.28 695.16 1247.5 695.16C1246.12 695.16 1245.04 694.797 1244.27 694.072C1243.51 693.336 1243.11 692.232 1243.07 690.76C1243.06 690.44 1243.06 689.987 1243.06 689.4C1243.06 688.813 1243.06 688.365 1243.07 688.056C1243.11 686.616 1243.53 685.523 1244.32 684.776C1245.11 684.019 1246.17 683.64 1247.5 683.64C1248.85 683.64 1249.91 684.019 1250.69 684.776C1251.48 685.523 1251.89 686.616 1251.94 688.056C1251.96 688.675 1251.97 689.123 1251.97 689.4C1251.97 689.667 1251.96 690.12 1251.94 690.76C1251.89 692.221 1251.51 693.315 1250.78 694.04L1251.84 695.544C1251.87 695.608 1251.89 695.667 1251.89 695.72V695.752C1251.89 695.827 1251.86 695.891 1251.79 695.944C1251.73 696.008 1251.65 696.04 1251.57 696.04H1250.7ZM1247.5 693.8C1248.35 693.8 1249.02 693.544 1249.52 693.032C1250.03 692.52 1250.31 691.736 1250.35 690.68C1250.37 690.04 1250.38 689.613 1250.38 689.4C1250.38 689.165 1250.37 688.739 1250.35 688.12C1250.31 687.064 1250.03 686.28 1249.52 685.768C1249.02 685.256 1248.35 685 1247.5 685C1246.66 685 1245.99 685.256 1245.49 685.768C1244.99 686.28 1244.71 687.064 1244.67 688.12C1244.66 688.429 1244.66 688.856 1244.66 689.4C1244.66 689.933 1244.66 690.36 1244.67 690.68C1244.71 691.736 1244.99 692.52 1245.49 693.032C1245.99 693.544 1246.66 693.8 1247.5 693.8ZM1258.72 695.16C1257.83 695.16 1257.06 695.021 1256.41 694.744C1255.77 694.467 1255.28 694.104 1254.94 693.656C1254.6 693.197 1254.42 692.707 1254.4 692.184C1254.4 692.099 1254.43 692.024 1254.49 691.96C1254.57 691.885 1254.65 691.848 1254.75 691.848H1255.56C1255.77 691.848 1255.9 691.955 1255.98 692.168C1256.08 692.616 1256.35 693 1256.8 693.32C1257.25 693.64 1257.89 693.8 1258.72 693.8C1259.6 693.8 1260.27 693.645 1260.72 693.336C1261.16 693.016 1261.39 692.573 1261.39 692.008C1261.39 691.645 1261.28 691.352 1261.05 691.128C1260.84 690.904 1260.52 690.707 1260.09 690.536C1259.66 690.365 1259.02 690.152 1258.17 689.896C1257.34 689.661 1256.68 689.411 1256.19 689.144C1255.7 688.877 1255.33 688.547 1255.08 688.152C1254.84 687.757 1254.72 687.261 1254.72 686.664C1254.72 686.088 1254.87 685.571 1255.18 685.112C1255.5 684.653 1255.95 684.296 1256.54 684.04C1257.13 683.773 1257.82 683.64 1258.64 683.64C1259.47 683.64 1260.18 683.789 1260.78 684.088C1261.38 684.376 1261.83 684.744 1262.14 685.192C1262.45 685.64 1262.61 686.088 1262.64 686.536C1262.64 686.621 1262.6 686.696 1262.54 686.76C1262.49 686.824 1262.41 686.856 1262.3 686.856H1261.45C1261.23 686.856 1261.09 686.755 1261.04 686.552C1260.97 686.104 1260.72 685.736 1260.28 685.448C1259.85 685.149 1259.3 685 1258.64 685C1257.91 685 1257.34 685.139 1256.92 685.416C1256.51 685.693 1256.3 686.104 1256.3 686.648C1256.3 687.011 1256.4 687.309 1256.59 687.544C1256.79 687.779 1257.09 687.987 1257.5 688.168C1257.9 688.339 1258.5 688.536 1259.28 688.76C1260.18 689.005 1260.9 689.261 1261.42 689.528C1261.94 689.784 1262.33 690.109 1262.59 690.504C1262.84 690.888 1262.97 691.379 1262.97 691.976C1262.97 692.968 1262.59 693.747 1261.82 694.312C1261.05 694.877 1260.02 695.16 1258.72 695.16Z" fill="white"/>
<path d="M1054.24 695C1054.13 695 1054.04 694.968 1053.96 694.904C1053.9 694.829 1053.87 694.739 1053.87 694.632V684.184C1053.87 684.067 1053.9 683.976 1053.96 683.912C1054.04 683.837 1054.13 683.8 1054.24 683.8H1055.05C1055.17 683.8 1055.26 683.837 1055.32 683.912C1055.4 683.976 1055.44 684.067 1055.44 684.184V688.6H1060.94V684.184C1060.94 684.067 1060.97 683.976 1061.04 683.912C1061.11 683.837 1061.2 683.8 1061.31 683.8H1062.12C1062.24 683.8 1062.33 683.837 1062.4 683.912C1062.47 683.976 1062.51 684.067 1062.51 684.184V694.632C1062.51 694.739 1062.47 694.829 1062.4 694.904C1062.32 694.968 1062.23 695 1062.12 695H1061.31C1061.2 695 1061.11 694.968 1061.04 694.904C1060.97 694.829 1060.94 694.739 1060.94 694.632V690.04H1055.44V694.632C1055.44 694.739 1055.4 694.829 1055.32 694.904C1055.25 694.968 1055.16 695 1055.05 695H1054.24ZM1070.12 695.16C1068.73 695.16 1067.64 694.797 1066.87 694.072C1066.12 693.336 1065.72 692.232 1065.67 690.76C1065.66 690.44 1065.66 689.987 1065.66 689.4C1065.66 688.813 1065.66 688.365 1065.67 688.056C1065.72 686.616 1066.13 685.523 1066.92 684.776C1067.71 684.019 1068.78 683.64 1070.12 683.64C1071.46 683.64 1072.52 684.019 1073.31 684.776C1074.1 685.523 1074.51 686.616 1074.55 688.056C1074.58 688.675 1074.59 689.123 1074.59 689.4C1074.59 689.667 1074.58 690.12 1074.55 690.76C1074.51 692.232 1074.11 693.336 1073.34 694.072C1072.58 694.797 1071.51 695.16 1070.12 695.16ZM1070.12 693.8C1070.97 693.8 1071.64 693.544 1072.14 693.032C1072.64 692.52 1072.91 691.736 1072.95 690.68C1072.98 690.04 1072.99 689.613 1072.99 689.4C1072.99 689.165 1072.98 688.739 1072.95 688.12C1072.91 687.064 1072.63 686.28 1072.12 685.768C1071.62 685.256 1070.95 685 1070.12 685C1069.28 685 1068.6 685.256 1068.09 685.768C1067.59 686.28 1067.32 687.064 1067.27 688.12C1067.26 688.429 1067.26 688.856 1067.26 689.4C1067.26 689.933 1067.26 690.36 1067.27 690.68C1067.32 691.736 1067.59 692.52 1068.09 693.032C1068.6 693.544 1069.28 693.8 1070.12 693.8ZM1079.47 695C1079.19 695 1079.02 694.856 1078.97 694.568L1076.91 684.296C1076.9 684.243 1076.89 684.184 1076.89 684.12C1076.89 684.035 1076.92 683.96 1076.99 683.896C1077.05 683.832 1077.12 683.8 1077.21 683.8H1078.04C1078.27 683.8 1078.39 683.891 1078.43 684.072L1080.06 692.328L1081.79 686.664C1081.88 686.408 1082.05 686.28 1082.3 686.28H1082.89C1083.03 686.28 1083.14 686.317 1083.21 686.392C1083.3 686.467 1083.35 686.557 1083.39 686.664L1085.13 692.328L1086.75 684.072C1086.78 683.891 1086.91 683.8 1087.15 683.8H1087.98C1088.06 683.8 1088.14 683.832 1088.2 683.896C1088.27 683.96 1088.3 684.035 1088.3 684.12L1088.28 684.296L1086.22 694.568C1086.15 694.856 1085.99 695 1085.72 695H1085.1C1084.82 695 1084.64 694.867 1084.57 694.6L1082.59 688.504L1080.62 694.6C1080.53 694.867 1080.36 695 1080.09 695H1079.47ZM1098.07 695C1097.97 695 1097.87 694.968 1097.8 694.904C1097.74 694.829 1097.7 694.739 1097.7 694.632V685.224H1094.63C1094.53 685.224 1094.43 685.192 1094.36 685.128C1094.3 685.053 1094.26 684.963 1094.26 684.856V684.184C1094.26 684.077 1094.3 683.987 1094.36 683.912C1094.43 683.837 1094.53 683.8 1094.63 683.8H1102.34C1102.46 683.8 1102.55 683.837 1102.62 683.912C1102.69 683.976 1102.73 684.067 1102.73 684.184V684.856C1102.73 684.963 1102.69 685.053 1102.62 685.128C1102.54 685.192 1102.45 685.224 1102.34 685.224H1099.29V694.632C1099.29 694.739 1099.25 694.829 1099.18 694.904C1099.1 694.968 1099.01 695 1098.9 695H1098.07ZM1109.12 695.16C1107.72 695.16 1106.64 694.797 1105.87 694.072C1105.11 693.336 1104.71 692.232 1104.67 690.76C1104.66 690.44 1104.66 689.987 1104.66 689.4C1104.66 688.813 1104.66 688.365 1104.67 688.056C1104.71 686.616 1105.13 685.523 1105.92 684.776C1106.71 684.019 1107.78 683.64 1109.12 683.64C1110.45 683.64 1111.51 684.019 1112.3 684.776C1113.09 685.523 1113.51 686.616 1113.55 688.056C1113.57 688.675 1113.58 689.123 1113.58 689.4C1113.58 689.667 1113.57 690.12 1113.55 690.76C1113.51 692.232 1113.1 693.336 1112.34 694.072C1111.58 694.797 1110.51 695.16 1109.12 695.16ZM1109.12 693.8C1109.96 693.8 1110.63 693.544 1111.14 693.032C1111.64 692.52 1111.91 691.736 1111.95 690.68C1111.97 690.04 1111.98 689.613 1111.98 689.4C1111.98 689.165 1111.97 688.739 1111.95 688.12C1111.91 687.064 1111.63 686.28 1111.12 685.768C1110.62 685.256 1109.95 685 1109.12 685C1108.28 685 1107.6 685.256 1107.09 685.768C1106.59 686.28 1106.31 687.064 1106.27 688.12C1106.26 688.429 1106.26 688.856 1106.26 689.4C1106.26 689.933 1106.26 690.36 1106.27 690.68C1106.31 691.736 1106.59 692.52 1107.09 693.032C1107.6 693.544 1108.28 693.8 1109.12 693.8Z" fill="white"/>
<path d="M896.681 695C896.595 695 896.521 694.968 896.457 694.904C896.393 694.84 896.361 694.765 896.361 694.68C896.361 694.595 896.366 694.536 896.377 694.504L900.345 684.152C900.43 683.917 900.601 683.8 900.857 683.8H901.945C902.201 683.8 902.371 683.917 902.457 684.152L906.409 694.504L906.441 694.68C906.441 694.765 906.409 694.84 906.345 694.904C906.281 694.968 906.206 695 906.121 695H905.305C905.187 695 905.097 694.973 905.033 694.92C904.969 694.856 904.926 694.792 904.905 694.728L904.025 692.456H898.777L897.897 694.728C897.875 694.792 897.827 694.856 897.753 694.92C897.689 694.973 897.603 695 897.497 695H896.681ZM903.561 691.08L901.401 685.4L899.241 691.08H903.561ZM909.319 695C909.213 695 909.122 694.968 909.047 694.904C908.983 694.829 908.951 694.739 908.951 694.632V684.184C908.951 684.067 908.983 683.976 909.047 683.912C909.122 683.837 909.213 683.8 909.319 683.8H913.703C914.845 683.8 915.703 684.072 916.279 684.616C916.855 685.16 917.143 685.875 917.143 686.76C917.143 687.357 917.005 687.853 916.727 688.248C916.461 688.643 916.141 688.931 915.767 689.112C916.215 689.336 916.594 689.683 916.903 690.152C917.213 690.621 917.367 691.16 917.367 691.768C917.367 692.365 917.229 692.909 916.951 693.4C916.685 693.891 916.285 694.28 915.751 694.568C915.218 694.856 914.578 695 913.831 695H909.319ZM913.463 688.536C914.135 688.536 914.647 688.381 914.999 688.072C915.362 687.763 915.543 687.331 915.543 686.776C915.543 686.232 915.367 685.816 915.015 685.528C914.663 685.24 914.146 685.096 913.463 685.096H910.519V688.536H913.463ZM913.623 693.704C914.295 693.704 914.818 693.523 915.191 693.16C915.575 692.797 915.767 692.333 915.767 691.768C915.767 691.181 915.575 690.712 915.191 690.36C914.818 689.997 914.295 689.816 913.623 689.816H910.519V693.704H913.623ZM924.471 695.16C923.074 695.16 921.991 694.797 921.223 694.072C920.466 693.336 920.066 692.232 920.023 690.76C920.012 690.44 920.007 689.987 920.007 689.4C920.007 688.813 920.012 688.365 920.023 688.056C920.066 686.616 920.482 685.523 921.271 684.776C922.06 684.019 923.127 683.64 924.471 683.64C925.804 683.64 926.866 684.019 927.655 684.776C928.444 685.523 928.86 686.616 928.903 688.056C928.924 688.675 928.935 689.123 928.935 689.4C928.935 689.667 928.924 690.12 928.903 690.76C928.86 692.232 928.455 693.336 927.687 694.072C926.93 694.797 925.858 695.16 924.471 695.16ZM924.471 693.8C925.314 693.8 925.986 693.544 926.487 693.032C926.988 692.52 927.26 691.736 927.303 690.68C927.324 690.04 927.335 689.613 927.335 689.4C927.335 689.165 927.324 688.739 927.303 688.12C927.26 687.064 926.983 686.28 926.471 685.768C925.97 685.256 925.303 685 924.471 685C923.628 685 922.951 685.256 922.439 685.768C921.938 686.28 921.666 687.064 921.623 688.12C921.612 688.429 921.607 688.856 921.607 689.4C921.607 689.933 921.612 690.36 921.623 690.68C921.666 691.736 921.938 692.52 922.439 693.032C922.951 693.544 923.628 693.8 924.471 693.8ZM936.291 695.16C934.915 695.16 933.848 694.792 933.091 694.056C932.344 693.309 931.971 692.184 931.971 690.68V684.184C931.971 684.067 932.003 683.976 932.067 683.912C932.142 683.837 932.232 683.8 932.339 683.8H933.155C933.272 683.8 933.363 683.837 933.427 683.912C933.502 683.976 933.539 684.067 933.539 684.184V690.712C933.539 691.736 933.779 692.504 934.259 693.016C934.739 693.528 935.416 693.784 936.291 693.784C937.166 693.784 937.843 693.528 938.323 693.016C938.803 692.504 939.043 691.736 939.043 690.712V684.184C939.043 684.067 939.075 683.976 939.139 683.912C939.214 683.837 939.304 683.8 939.411 683.8H940.243C940.35 683.8 940.435 683.837 940.499 683.912C940.574 683.987 940.611 684.077 940.611 684.184V690.68C940.611 692.184 940.232 693.309 939.475 694.056C938.728 694.792 937.667 695.16 936.291 695.16ZM946.902 695C946.795 695 946.704 694.968 946.63 694.904C946.566 694.829 946.534 694.739 946.534 694.632V685.224H943.462C943.355 685.224 943.264 685.192 943.19 685.128C943.126 685.053 943.094 684.963 943.094 684.856V684.184C943.094 684.077 943.126 683.987 943.19 683.912C943.264 683.837 943.355 683.8 943.462 683.8H951.174C951.291 683.8 951.382 683.837 951.446 683.912C951.52 683.976 951.558 684.067 951.558 684.184V684.856C951.558 684.963 951.52 685.053 951.446 685.128C951.371 685.192 951.28 685.224 951.174 685.224H948.118V694.632C948.118 694.739 948.08 694.829 948.006 694.904C947.931 694.968 947.84 695 947.734 695H946.902Z" fill="white"/>
<mask id="mask0" style="mask-type:alpha" maskUnits="userSpaceOnUse" x="0" y="170" width="1400" height="660">
<path d="M1300 170H0V830H1400V270C1400 214.772 1355.23 170 1300 170Z" fill="#0F264C"/>
</mask>
<g mask="url(#mask0)">
<path opacity="0.2" d="M-216 486.609C-166.999 422.887 -37.2115 298.63 89.9269 311.375C248.85 327.305 -53.1039 626 89.9269 626C232.958 626 300.5 259.601 403.8 259.601C507.1 259.601 288.581 530.418 403.8 546.348C519.019 562.278 614.373 164.018 741.512 160.036C868.65 156.053 610.4 486.609 817 486.609" stroke="url(#paint0_linear)" stroke-width="2"/>
</g>
<path d="M379.072 166.983C377.14 158.134 373.951 149.766 369.7 142.071C369.12 141.013 368.443 139.859 367.767 138.801C362.839 130.625 356.752 123.315 349.699 116.967C348.829 116.101 347.863 115.331 346.897 114.562C339.36 108.31 330.76 103.212 321.485 99.5572C320.325 99.0762 319.166 98.6915 318.006 98.3068C308.73 95.0365 298.682 93.209 288.343 93.0166C287.763 93.0166 287.087 93.0166 286.507 93.0166C285.927 93.0166 285.251 93.0166 284.671 93.0166C274.236 93.209 264.284 95.0365 255.008 98.3068C253.848 98.6915 252.689 99.1724 251.529 99.5572C242.254 103.212 233.654 108.31 226.118 114.562C225.151 115.331 224.185 116.197 223.316 116.967C216.262 123.315 210.078 130.625 205.247 138.801C204.571 139.859 203.991 141.013 203.315 142.071C199.063 149.766 195.875 158.134 193.942 166.983C193.652 168.233 193.459 169.483 193.169 170.734C192.203 176.12 191.72 181.603 191.72 187.181H381.198C381.198 181.603 380.715 176.024 379.748 170.734C379.555 169.483 379.362 168.233 379.072 166.983Z" fill="#0F264C"/>
<path d="M14.627 173.478C14.627 192.983 25.857 208.742 39.6687 208.742H64.7104C78.522 208.742 89.623 192.854 89.623 173.478C89.623 153.973 78.3929 138.214 64.5813 138.214C64.3231 138.214 64.194 138.214 63.9359 138.214H39.6687C25.7279 138.214 14.627 154.102 14.627 173.478Z" fill="#402B2B"/>
<path d="M210.828 173.09C210.828 192.595 222.058 208.354 235.87 208.354H260.912C274.723 208.354 285.824 192.466 285.824 173.09C285.824 153.585 274.594 137.826 260.782 137.826C260.524 137.826 260.395 137.826 260.137 137.826H235.87C221.929 137.826 210.828 153.585 210.828 173.09Z" fill="#F48767"/>
<path d="M12.9492 170.12L113.761 169.861L102.144 163.015L25.8573 163.144L12.9492 170.12Z" fill="#402B2B"/>
<path d="M-82.1836 112.638L-82.0545 177.353L-0.217197 177.224L25.8571 163.145L102.144 163.015L125.637 176.966L292.151 176.578C294.862 176.578 297.056 174.382 297.056 171.67L296.927 111.863L-82.1836 112.638Z" fill="#F36F49"/>
<path d="M96.2075 127.363L226.837 127.105L226.579 8.65453C226.579 3.87517 222.707 0 217.802 0L95.8203 0.25836L96.2075 127.363Z" fill="#F48767"/>
<path d="M-107.483 127.88L96.0775 127.493L95.8194 0.387695L-99.0928 0.775195C-103.869 0.775195 -107.741 4.65034 -107.741 9.55887L-107.483 127.88Z" fill="#F06A5B"/>
<path d="M194.307 173.09C194.307 192.595 183.206 208.354 169.394 208.354H144.482V196.47C135.317 196.47 127.83 186.007 127.83 173.09C127.83 160.173 135.188 149.71 144.352 149.71V137.826H169.265C183.077 137.955 194.178 153.714 194.307 173.09Z" fill="#F48767"/>
<path d="M123.83 173.349C123.83 189.366 132.995 202.284 144.354 202.154C155.713 202.154 164.749 189.237 164.749 173.22C164.749 157.203 155.584 144.285 144.225 144.415C132.995 144.415 123.83 157.332 123.83 173.349Z" fill="#F48767"/>
<path d="M144.351 192.337C151.838 192.337 157.776 183.811 157.776 173.219C157.776 162.627 151.709 154.231 144.222 154.231C136.736 154.231 130.798 162.756 130.798 173.348C130.798 183.94 136.865 192.337 144.351 192.337ZM144.351 161.981C148.74 161.981 152.354 167.019 152.354 173.219C152.354 179.419 148.74 184.586 144.351 184.586C139.963 184.586 136.348 179.549 136.348 173.348C136.348 167.019 139.834 161.981 144.351 161.981Z" fill="#F7A58D"/>
<path d="M144.352 208.483C158.164 208.483 169.265 192.595 169.265 173.219C169.265 153.844 158.035 137.956 144.223 137.956C130.412 137.956 119.311 153.844 119.311 173.219C119.311 192.595 130.67 208.613 144.352 208.483ZM144.223 144.414C155.582 144.414 164.747 157.331 164.747 173.219C164.747 189.237 155.711 202.154 144.352 202.154C132.993 202.154 123.828 189.237 123.828 173.349C123.828 157.331 132.993 144.414 144.223 144.414Z" fill="#F7A58D"/>
<path d="M140.867 173.22C140.867 170.507 142.416 168.44 144.223 168.44C146.03 168.44 147.579 170.636 147.708 173.22C147.708 175.932 146.16 177.999 144.352 177.999C142.416 178.128 140.867 175.932 140.867 173.22Z" fill="#F48766"/>
<path d="M313.319 76.5993C313.319 77.116 313.707 77.5035 314.094 77.6326C315.127 77.891 318.999 77.891 320.161 77.5035C320.677 77.3743 321.193 76.9868 321.193 76.3409C321.581 66.0072 321.581 55.9318 321.193 46.3731C321.193 45.7272 320.677 45.3397 320.161 45.2105C318.87 44.823 314.352 44.5646 312.932 45.0813C312.416 45.2105 312.029 45.7272 312.029 46.2439C311.77 56.061 312.158 66.1364 313.319 76.5993Z" fill="#F69276"/>
<path d="M306.996 85.7701C307.125 85.7701 307.254 85.7701 307.512 85.641L316.29 81.2491C318.355 80.2157 319.646 78.149 319.646 75.8239L319.517 43.4017C319.517 42.11 318.484 41.0767 317.193 41.0767H293.055C292.41 41.0767 292.022 41.5933 292.022 42.11C292.022 42.7559 292.539 43.1434 293.055 43.1434H317.193C317.322 43.1434 317.322 43.2726 317.322 43.2726L317.451 75.6947C317.451 77.2448 316.548 78.5365 315.257 79.1824L306.479 83.5742C305.963 83.8326 305.705 84.4784 305.963 84.9951C306.221 85.641 306.609 85.7701 306.996 85.7701Z" fill="#F69276"/>
<path d="M113.761 127.105C113.761 127.105 117.117 127.105 122.281 127.105H142.805C158.165 127.105 161.779 134.726 171.202 153.456L201.02 153.326C201.02 153.326 201.02 151.131 201.02 147.385L314.869 147.126C315.386 137.697 316.418 118.579 316.418 100.495C316.418 99.8494 316.418 99.3327 316.418 98.6868C316.418 93.5199 315.515 87.8364 313.966 82.1528C307.899 59.9353 292.538 36.2968 286.213 27.6423C284.148 24.8005 282.341 22.3463 280.792 20.1504C276.403 14.3376 273.434 11.3667 267.884 11.3667L129.896 11.7542C127.057 11.7542 124.475 13.6918 123.701 16.4044C111.825 60.0645 113.632 93.2616 113.761 127.105ZM230.063 27.1256C229.934 26.4798 230.45 25.9631 231.096 25.9631L273.047 25.8339C275.5 25.8339 277.952 27.1257 279.501 29.3216C295.894 51.6683 302.478 72.0774 304.93 83.8321L307.512 96.2326C307.899 98.041 306.737 99.4619 304.93 99.4619H294.733C293.055 99.4619 291.248 98.6868 289.957 97.3951L269.046 77.3735C266.722 75.1775 263.624 73.8859 260.655 73.8859H235.614L230.063 27.1256Z" fill="#F36F49"/>
<path d="M208.376 82.541C209.28 86.6745 210.312 90.9372 211.216 95.4583C211.861 98.5584 214.572 100.754 217.67 100.883C258.459 102.304 292.279 102.434 316.417 100.625C316.417 99.9793 316.417 99.4626 316.417 98.8167C316.417 93.6498 315.513 87.9663 313.964 82.2827L208.376 82.541Z" fill="#F6977C"/>
<path d="M132.993 26.0926L174.945 25.9634C177.397 25.9634 179.592 27.2551 180.753 29.451C192.5 51.7978 194.952 72.2069 194.952 83.9616V96.3621C194.952 98.1705 193.532 99.5914 191.725 99.5914H181.528C179.85 99.5914 178.172 98.8164 177.139 97.5246L160.359 77.503C158.422 75.3071 155.712 73.8862 152.743 74.0154H127.701L131.703 27.2551C131.703 26.6092 132.219 26.0926 132.993 26.0926Z" fill="#F36F49"/>
<path d="M113.761 127.105C113.761 127.105 117.117 127.105 122.281 127.105H142.805C158.165 127.105 161.779 134.726 171.202 153.456L201.02 153.326C201.02 153.326 201.02 151.131 201.02 147.385L314.869 147.126C315.386 137.697 316.418 118.579 316.418 100.495C292.28 102.304 258.332 102.304 217.671 100.754C214.574 100.624 211.863 98.4285 211.217 95.3284C210.314 90.8074 209.281 86.4155 208.378 82.4112C202.827 58.7728 196.76 41.8512 188.757 23.5088C188.112 22.088 189.145 20.4087 190.694 20.4087L280.792 20.1504C276.403 14.3376 273.434 11.3667 267.884 11.3667L129.896 11.7542C127.057 11.7542 124.475 13.6918 123.701 16.4044C111.825 60.0645 113.632 93.2616 113.761 127.105ZM127.573 74.015L131.574 27.2548C131.574 26.609 132.22 26.0923 132.865 26.0923L174.817 25.9631C177.269 25.9631 179.463 27.2548 180.625 29.4508C192.372 51.7975 194.824 72.2066 194.824 83.9612V96.3617C194.824 98.1701 193.404 99.591 191.597 99.591H181.4C179.722 99.591 178.044 98.816 177.011 97.5243L160.23 77.5026C158.294 75.3067 155.584 73.8859 152.615 74.015H127.573Z" fill="#F7A58D"/>
<path d="M118.794 123.747C118.794 125.684 120.343 127.105 122.279 127.105H142.803C158.164 127.105 161.778 134.726 171.201 153.456L201.019 153.327C201.019 153.327 201.019 151.131 201.019 147.385L200.889 95.0705C200.889 69.1069 196.243 52.7021 183.98 26.7386C182.173 22.8634 178.171 20.4092 173.912 20.4092L129.508 20.5383C128.475 20.5383 127.701 21.1842 127.442 22.0884C118.665 55.4147 118.665 109.667 118.794 123.747ZM127.572 74.0155L131.573 27.2553C131.573 26.6094 132.218 26.0927 132.864 26.0927L174.815 25.9636C177.268 25.9636 179.462 27.2553 180.624 29.4512C192.37 51.7979 194.823 72.2071 194.823 83.9617V96.3622C194.823 98.1706 193.403 99.5915 191.596 99.5915H181.398C179.72 99.5915 178.042 98.8165 177.01 97.5247L160.229 77.5031C158.293 75.3072 155.582 73.8863 152.613 74.0155H127.572Z" fill="#F58A6B"/>
<path d="M133.252 27.6426L174.945 27.5135C176.752 27.5135 178.43 28.5468 179.334 30.0969C191.467 53.2187 193.403 73.757 193.403 83.8324V96.2329C193.403 97.1371 192.629 97.9122 191.725 97.9122H181.528C180.237 97.9122 179.075 97.3955 178.301 96.4913L161.52 76.4696C159.326 73.8862 156.099 72.3361 152.614 72.3361H129.379L133.252 27.6426ZM132.993 26.0926C132.348 26.0926 131.703 26.6092 131.703 27.2551L127.701 74.0154H152.743C155.712 74.0154 158.422 75.3071 160.359 77.503L177.139 97.5246C178.172 98.8164 179.85 99.5914 181.528 99.5914H191.725C193.532 99.5914 194.952 98.1705 194.952 96.3621V83.9616C194.952 72.2069 192.5 51.7978 180.753 29.451C179.592 27.2551 177.397 25.9634 174.945 25.9634L132.993 26.0926Z" fill="#F7A58D"/>
<path d="M200.892 122.713V147.385L245.941 147.256C245.425 140.797 244.263 134.597 242.327 128.784C241.552 126.459 239.616 124.78 237.163 124.392C227.224 123.23 214.574 122.713 200.892 122.713ZM292.023 147.256H314.354C314.741 141.83 315.128 133.047 315.515 123.1C310.094 123.359 305.06 123.875 300.542 124.521C298.09 124.909 296.153 126.588 295.379 128.913C293.572 134.597 292.539 140.797 292.023 147.256Z" fill="#F6977C"/>
<path d="M201.02 172.186L305.446 171.928C312.545 171.928 318.354 166.115 318.354 159.011V156.815C318.354 154.748 316.676 153.198 314.74 153.198L201.149 153.456L201.02 172.186Z" fill="#F6977C"/>
<path d="M181.787 172.187H201.02V153.457H171.461L174.688 166.503C175.462 169.861 178.431 172.187 181.787 172.187Z" fill="#F7A58D"/>
<path d="M135.833 103.855C140.222 103.984 148.741 104.888 148.741 107.988C148.741 111.088 141.255 112.122 135.188 112.122C129.121 112.122 128.475 108.763 127.959 107.342C127.572 105.921 127.185 103.725 135.833 103.855Z" fill="#F6977C"/>
<path d="M136.221 107.213C134.156 107.213 131.961 106.567 130.929 105.534C131.703 105.146 132.865 104.759 134.672 104.759C138.028 104.759 143.45 105.146 146.289 106.438C145.902 106.696 144.869 107.213 143.191 107.213C141.126 107.213 138.415 107.213 136.221 107.213Z" fill="#F47B58"/>
<path d="M144.869 109.667C145.644 109.667 146.031 109.797 146.16 109.926C143.837 110.959 139.577 111.347 137.512 111.347C134.543 111.347 132.477 111.347 131.832 110.701C132.348 110.313 133.51 109.667 134.672 109.667C136.221 109.797 143.837 109.667 144.869 109.667Z" fill="#F47B58"/>
<path d="M201.02 147.514C201.02 151.26 201.02 153.456 201.02 153.456L314.482 153.198C314.482 153.198 314.611 151.002 314.869 147.256L201.02 147.514Z" fill="#F58A6B"/>
<g opacity="0.2">
<path d="M249.942 121.421V146.093L288.021 145.964V121.292C288.021 118.321 285.311 115.996 281.954 115.996H255.88C252.653 116.125 249.942 118.58 249.942 121.421Z" fill="#F16036"/>
</g>
<path d="M300.8 145.189H308.803C310.868 145.189 312.676 143.51 312.676 141.314V137.31C312.676 135.243 310.998 133.435 308.803 133.435H300.8C298.735 133.435 296.928 135.114 296.928 137.31V141.314C296.928 143.51 298.735 145.189 300.8 145.189Z" fill="white"/>
<path d="M225.027 145.448H233.03C235.095 145.448 236.902 143.769 236.902 141.573V137.569C236.902 135.502 235.224 133.693 233.03 133.693H225.027C222.961 133.693 221.154 135.373 221.154 137.569V141.573C221.154 143.64 222.832 145.448 225.027 145.448Z" fill="white"/>
<path d="M173.395 76.858C173.395 77.3746 173.783 77.7622 174.17 77.8913C179.204 78.408 184.496 78.408 189.918 77.7622C190.563 77.633 190.951 77.2455 190.951 76.5996C191.338 66.2659 191.338 56.1905 190.951 46.6318C190.951 45.9859 190.434 45.5984 189.918 45.4693C184.367 44.8234 178.817 44.8234 173.008 45.4693C172.492 45.5984 172.105 46.1151 172.105 46.6318C171.717 56.3197 172.234 66.395 173.395 76.858Z" fill="#F7A58D"/>
<path d="M193.402 86.0289C193.789 86.0289 194.177 85.7706 194.306 85.3831C194.564 84.8664 194.306 84.2205 193.789 83.9622L185.012 79.6995C183.721 79.0536 182.818 77.6327 182.818 76.2118L182.688 43.7897C182.688 43.6605 182.818 43.6605 182.818 43.6605H188.239C188.884 43.6605 189.272 43.1438 189.272 42.6271C189.272 41.9813 188.755 41.5938 188.239 41.5938H182.818C181.527 41.5938 180.494 42.6271 180.494 43.9188L180.623 76.341C180.623 78.6661 181.914 80.7329 183.979 81.7663L192.757 86.0289C193.144 86.0289 193.273 86.0289 193.402 86.0289Z" fill="#F69276"/>
<path d="M252.604 173.716L289.134 173.636L289.11 162.657L252.58 162.736L252.604 173.716Z" fill="#F8B4A0"/>
<path opacity="0.6" d="M188.508 23.9C196.511 42.2424 202.449 59.1639 208.128 82.8023L313.716 82.544C307.65 60.3264 292.289 36.688 285.964 28.0335C283.899 25.1917 282.092 22.7374 280.543 20.5415L190.444 20.7999C188.895 20.929 187.862 22.4791 188.508 23.9Z" fill="url(#paint1_linear)"/>
<path d="M125.325 185.603C123.427 176.862 120.297 168.596 116.123 160.995C115.554 159.949 114.889 158.809 114.225 157.764C109.387 149.688 103.411 142.467 96.4854 136.196C95.6316 135.341 94.683 134.581 93.7343 133.821C86.3347 127.645 77.8916 122.61 68.7844 118.999C67.646 118.524 66.5077 118.144 65.3693 117.764C56.2621 114.534 46.396 112.729 36.2453 112.539C35.6761 112.539 35.012 112.539 34.4428 112.539C33.8736 112.539 33.2096 112.539 32.6404 112.539C22.3948 112.729 12.6235 114.534 3.51638 117.764C2.37798 118.144 1.23961 118.619 0.101209 118.999C-9.00596 122.61 -17.4491 127.645 -24.8487 133.821C-25.7973 134.581 -26.746 135.436 -27.5998 136.196C-34.525 142.467 -40.5965 149.688 -45.3398 157.764C-46.0039 158.809 -46.5731 159.949 -47.2371 160.995C-51.4113 168.596 -54.5418 176.862 -56.4391 185.603C-56.7237 186.838 -56.9135 188.073 -57.1981 189.308C-58.1468 194.629 -58.6211 200.044 -58.6211 205.555H127.412C127.412 200.044 126.938 194.534 125.989 189.308C125.799 188.073 125.609 186.838 125.325 185.603Z" fill="#FCDDD4"/>
<defs>
<linearGradient id="paint0_linear" x1="300.5" y1="270.318" x2="300.5" y2="728.71" gradientUnits="userSpaceOnUse">
<stop stop-color="#F37753"/>
<stop offset="1" stop-color="white" stop-opacity="0"/>
</linearGradient>
<linearGradient id="paint1_linear" x1="237.764" y1="0.781219" x2="288.316" y2="121.884" gradientUnits="userSpaceOnUse">
<stop stop-color="#F7A58D"/>
<stop offset="0.926161" stop-color="white"/>
</linearGradient>
</defs>
</svg>
